<?xml version="1.0" encoding="UTF-8"?>
<svg id="Layer_2" data-name="Layer 2" xmlns="http://www.w3.org/2000/svg" viewBox="0 0 697.14 172.41">
  <defs>
    <style>
      .cls-1 {
        fill: #fff;
      }
    </style>
  </defs>
  <g id="Layer_1-2" data-name="Layer 1">
    <g>
      <path class="cls-1" d="M86.01.33C-37.51,9.73-26.39,167.92,109.06,156.86c7.87-.64,15.57-2.21,22.92-4.58,1.24,1.79,3.13,4.77,4.64,7.13,3.53,5.55,5.77,9.01,7,10.3,2.63,2.75,5.24,2.91,6.98,2.56,1-.2,1.91-.61,2.73-1.17,2.18-1.47,3.75-3.94,4.59-6.16,2.23-5.92,3.88-12.39,5.47-18.64,1.25-4.91,2.55-9.93,4.11-14.67,19.53-18.32,29.4-44.99,20.02-74.95C174.64,15.53,126.08-2.72,86.01.33ZM166.06,89.75c-2.74,12.84-10.16,22.99-20.24,30.44-.45.34-.73.85-.76,1.42-.2,4.83-.6,9.66-1.11,14.47-.15,1.42-1.89,2.5-3.04,1.26-2.28-2.48-3.85-5.08-6.52-8.43-.61-.76-1.49-1.23-2.39-.84-37.49,16.24-93.14,5.63-105.78-33.19C13.37,55.38,48.01,26.11,84.62,22.35c40.46-4.15,91.53,20.15,81.44,67.4Z"/>
      <path class="cls-1" d="M670.29,68.44c-36.54-21.69-83.55-14.8-123.96-10.7v22.03c29.82-2.52,76.13-10.38,103.61,3.45,4.49,2.26,12.85,8.2,11.76,13.07-28.74-14.03-92.13-14.85-117.4,5.55-15.25,12.31-14.29,29.85.64,41.98,20.35,16.53,65.35,15.69,89.83,9.63,9.94-2.46,21.48-6.88,29.69-13.07l3.45,13.74h24.87l-7.99-34.05c5.34-20.07,3.29-38.93-14.48-51.63ZM650.4,123.6c-17.87,12.52-72.74,18.85-89.57,4.37-16.52-14.21,24.28-19.6,32.2-20.25,17.24-1.41,43.05-.67,57.89,8.95,4.82,3.13,3.87,3.87-.51,6.93Z"/>
      <path class="cls-1" d="M518.7,77.71V4.05h-24.87v77.1c-20.96-20.05-49.95-31.49-79.06-25.78-61.97,12.15-53.16,95.95,6.55,101.49,26.58,2.46,51.77-5.82,72.49-22.01l4.85,19.27h22.79l-10.91-43.4c3.3-9.47,8.15-23.09,8.15-33.02ZM483.17,109.62c-2.1,5-15.11,14.66-20.18,17.21-18.97,9.55-57.19,14.48-65.19-11.23-5.65-18.16,4.26-37.03,23.85-39.59,21.24-2.77,43.67,9.32,57.01,25.07,1.92,2.27,5.69,5.7,4.5,8.54Z"/>
      <path class="cls-1" d="M331.31,62.07c-30.85-14.15-66.64-8.37-96.46,5.36l-19.2-9.8-10.4,16.18,12.28,9.39c-11.45,15.03-18.74,34.23-13.14,53.05,8.22,27.61,45.22,28.1,54.88.95,6.59-18.51-.91-36.25-7.16-53.24,20.95-9.97,68.29-12.4,80.65,11.09.62,1.17,3.45,7.02,3.59,12.82.14,5.79,0,46.26,0,46.26h23.49v-52.14c0-18.83-16.98-34.62-28.52-39.91ZM235.36,134.71c-14.56,3.53-7.75-31.5-3.32-31.5,6.22,8.61,7.88,21.83,3.32,31.5Z"/>
      <path class="cls-1" d="M141.08,82.6c-4.96-4.27-7.97,2.18-10.71,4.86-10.23,10-25.16,10.27-35.59.44-2.85-2.69-4.65-7.61-9.45-6.35-5.3,1.39-3.17,7.1-1,10.27,10.29,15,32.88,18.02,47.66,8.2,4.21-2.8,15.03-12.3,9.09-17.41Z"/>
      <path class="cls-1" d="M93.57,75.84c11,1.68,11.24-18.6,2.82-20.05-11.55-1.99-11.07,18.79-2.82,20.05Z"/>
      <path class="cls-1" d="M128.9,75.84c10.48,1.6,11.18-18.5,2.82-20.06-11.37-2.11-11.26,18.77-2.82,20.06Z"/>
      <path class="cls-1" d="M669.24,36.91h4v11.95c0,.14.05.27.15.37.1.1.22.15.37.15h1.99c.16,0,.29-.05.39-.15s.15-.22.15-.37v-11.95h3.98c.16,0,.29-.05.39-.15.1-.1.15-.22.15-.37v-1.6c0-.16-.05-.29-.15-.39-.1-.1-.23-.15-.39-.15h-11.02c-.14,0-.27.05-.37.15-.1.1-.15.23-.15.39v1.6c0,.14.05.27.15.37.1.1.22.15.37.15Z"/>
      <path class="cls-1" d="M696.99,34.4c-.1-.1-.23-.15-.39-.15h-1.69c-.2,0-.35.05-.45.16s-.17.19-.19.25l-4.21,7.78-4.17-7.78c-.03-.06-.09-.14-.19-.25s-.25-.16-.45-.16h-1.71c-.16,0-.29.05-.39.15s-.15.23-.15.39v14.07c0,.14.05.27.15.37s.23.15.39.15h1.82c.14,0,.27-.05.37-.15s.15-.22.15-.37v-9.36l3.03,5.77c.07.13.16.24.27.33.11.09.26.14.46.14h.89c.19,0,.34-.05.45-.14s.21-.21.28-.33l3.03-5.77v9.36c0,.14.05.27.14.37s.22.15.38.15h1.82c.16,0,.29-.05.39-.15s.15-.22.15-.37v-14.07c0-.16-.05-.29-.15-.39Z"/>
    </g>
  </g>
</svg>