<?xml version="1.0" encoding="UTF-8"?>
<svg id="Layer_2" data-name="Layer 2" xmlns="http://www.w3.org/2000/svg" viewBox="0 0 191.11 172.41">
  <g id="Layer_1-2" data-name="Layer 1">
    <g>
      <path d="M86.01.33C-37.51,9.73-26.39,167.92,109.06,156.86c7.87-.64,15.57-2.21,22.92-4.58,1.24,1.79,3.13,4.77,4.64,7.13,3.53,5.55,5.77,9.01,7,10.3,2.63,2.75,5.24,2.91,6.98,2.56,1-.2,1.91-.61,2.73-1.17,2.18-1.47,3.75-3.94,4.59-6.16,2.23-5.92,3.88-12.39,5.47-18.64,1.25-4.91,2.55-9.93,4.11-14.67,19.53-18.32,29.4-44.99,20.02-74.95C174.64,15.53,126.08-2.72,86.01.33ZM166.06,89.75c-2.74,12.84-10.16,22.99-20.24,30.44-.45.34-.73.85-.76,1.42-.2,4.83-.6,9.66-1.11,14.47-.15,1.42-1.89,2.5-3.04,1.26-2.28-2.48-3.85-5.08-6.52-8.43-.61-.76-1.49-1.23-2.39-.84-37.49,16.24-93.14,5.63-105.78-33.19C13.37,55.38,48.01,26.11,84.62,22.35c40.46-4.15,91.53,20.15,81.44,67.4Z"/>
      <path d="M141.08,82.6c-4.96-4.27-7.97,2.18-10.71,4.86-10.23,10-25.16,10.27-35.59.44-2.85-2.69-4.65-7.61-9.45-6.35-5.3,1.39-3.17,7.1-1,10.27,10.29,15,32.88,18.02,47.66,8.2,4.21-2.8,15.03-12.3,9.09-17.41Z"/>
      <path d="M93.57,75.84c11,1.68,11.24-18.6,2.82-20.05-11.55-1.99-11.07,18.79-2.82,20.05Z"/>
      <path d="M128.9,75.84c10.48,1.6,11.18-18.5,2.82-20.06-11.37-2.11-11.26,18.77-2.82,20.06Z"/>
    </g>
  </g>
</svg>